<svg width="698" height="143" viewBox="0 0 698 143" fill="none" xmlns="http://www.w3.org/2000/svg">
<mask id="mask0_30952_3111" style="mask-type:luminance" maskUnits="userSpaceOnUse" x="0" y="0" width="118" height="142">
<path d="M0 0.446777H118V141.762H0V0.446777Z" fill="white"/>
</mask>
<g mask="url(#mask0_30952_3111)">
<mask id="mask1_30952_3111" style="mask-type:luminance" maskUnits="userSpaceOnUse" x="0" y="0" width="118" height="142">
<path d="M0 0.446777H118V141.762H0V0.446777Z" fill="white"/>
</mask>
<g mask="url(#mask1_30952_3111)">
<path fill-rule="evenodd" clip-rule="evenodd" d="M0.0862931 56.4993C0.321597 53.5119 0.640749 50.5559 1.25623 47.6168C1.78785 45.0789 2.54886 42.5859 3.41808 40.147C4.58735 36.8672 5.97964 33.683 7.71917 30.6589C11.2116 24.5875 15.8086 19.1014 21.1056 14.527C24.021 12.0094 27.2625 9.85671 30.6172 7.97648C37.8615 3.91684 45.9867 1.29404 54.2779 0.661662C57.5915 0.409018 60.8767 0.329554 64.1907 0.698972C65.979 0.898278 67.8061 1.06422 69.5724 1.41586C74.8841 2.47341 80.0318 4.28648 84.8739 6.70844C91.5559 10.0505 97.68 14.6905 102.706 20.2188C107.793 25.815 111.965 32.529 114.469 39.6823C115.417 42.3925 116.267 45.125 116.862 47.9379C117.752 52.1466 118.098 56.5129 117.977 60.8111C117.819 66.3952 116.769 71.9187 114.971 77.2053C113.198 82.4165 110.788 87.4237 107.595 91.9265C104.473 96.3279 100.721 100.379 96.5568 103.804C94.9878 105.095 93.3984 106.39 91.7107 107.525C87.1837 110.571 82.2009 112.864 77.0448 114.601C75.4118 115.151 73.7223 115.544 72.0554 115.977C71.502 116.121 70.6444 116.501 70.1725 115.986C69.8474 115.632 69.9438 115.017 69.9462 114.577C69.9519 113.47 69.9504 112.366 69.9719 111.259C69.9831 110.692 69.9995 110.126 69.989 109.559C69.9818 109.174 69.9295 108.734 70.0283 108.358C70.115 108.027 70.3714 107.719 70.5496 107.431C70.8773 106.902 71.1881 106.36 71.5018 105.823C72.5058 104.102 73.3757 102.309 74.3636 100.58C74.8068 99.8046 75.2502 99.0205 75.7267 98.265C76.0898 97.6897 76.5911 97.0347 76.7046 96.3466C76.8552 95.4335 76.5356 94.4233 76.2628 93.5605C76.6603 93.425 77.0347 93.2058 77.4112 93.0214C78.445 92.5152 79.4481 91.9208 80.4196 91.3045C84.2563 88.8709 87.6344 85.7709 90.3509 82.127C91.5623 80.502 92.7121 78.834 93.7114 77.0681C96.0386 72.9558 97.6249 68.1857 98.2094 63.4954C99.1998 55.5495 97.6901 47.3189 93.8765 40.262C93.1131 38.8491 92.2065 37.5128 91.2816 36.2024C86.6424 29.6288 80.0728 24.464 72.5493 21.5931C70.0503 20.6396 67.4639 19.8681 64.8145 19.4622C61.9997 19.0314 59.1598 18.996 56.3267 19.1725C54.6445 19.2772 52.9372 19.4708 51.2901 19.8411C49.5433 20.234 47.7454 20.7283 46.0798 21.3894C44.8372 21.8824 43.6396 22.456 42.4203 22.999C41.5057 23.4064 40.5958 23.8724 39.733 24.3819C29.3094 30.5345 21.7026 41.4324 20.0825 53.4858C19.008 61.4775 20.6337 69.7996 24.4404 76.8835C25.782 79.3799 27.4515 81.6888 29.2473 83.8746C32.6769 88.0491 37.2006 91.3448 42.0436 93.7038C41.8195 94.4609 41.5592 95.2857 41.6819 96.0838C41.775 96.6897 42.1505 97.261 42.4548 97.7817C42.9287 98.5923 43.3738 99.42 43.8271 100.242C44.774 101.961 45.6913 103.703 46.6804 105.398C47.0421 106.018 47.4179 106.629 47.7794 107.249C47.9717 107.579 48.2342 107.928 48.3466 108.295C48.4464 108.621 48.4045 109.004 48.4087 109.341C48.417 109.993 48.4115 110.646 48.4113 111.298C48.4107 112.415 48.4067 113.533 48.4295 114.65C48.441 115.202 48.549 115.786 48.0946 116.19C47.7067 116.534 47.0739 116.338 46.6248 116.236C45.3919 115.956 44.1522 115.647 42.9438 115.275C37.8086 113.693 32.799 111.659 28.2424 108.772C23.2909 105.636 18.6748 101.77 14.7875 97.3795C13.5322 95.9618 12.3752 94.4508 11.2476 92.9305C10.0226 91.2788 8.90293 89.5671 7.84012 87.8065C7.2084 86.7597 6.56658 85.7101 6.02771 84.6112C2.58749 77.598 0.522219 69.9316 0.0612695 62.1332C-0.0495778 60.2617 0.00924876 58.3701 0.0862931 56.4993Z" fill="#39934D"/>
</g>
<mask id="mask2_30952_3111" style="mask-type:luminance" maskUnits="userSpaceOnUse" x="0" y="0" width="118" height="142">
<path d="M0 0.446777H118V141.762H0V0.446777Z" fill="white"/>
</mask>
<g mask="url(#mask2_30952_3111)">
<path fill-rule="evenodd" clip-rule="evenodd" d="M19.5409 138.293C19.6335 137.913 19.7097 137.532 19.9009 137.184C20.7607 135.619 22.4903 135.823 24.013 135.827C25.3056 135.83 26.598 135.831 27.8904 135.831C33.7682 135.83 39.646 135.83 45.5237 135.83C47.4505 135.83 49.3773 135.83 51.3038 135.83C52.3063 135.83 53.3544 135.743 54.3516 135.85C54.3052 129.881 54.3399 123.91 54.3401 117.941C54.3401 116.087 54.3421 114.234 54.3401 112.38C54.3391 111.414 54.4635 110.345 54.2458 109.397C53.9227 107.99 53.1395 106.638 52.5212 105.345C51.5369 103.287 50.4961 101.259 49.4335 99.2405C48.8382 98.1094 48.1639 96.9821 47.663 95.8066C49.0777 96.3734 50.5994 96.6781 52.0912 96.9621C56.3009 97.7637 60.7372 97.8087 64.971 97.1656C66.1385 96.9884 67.2823 96.7154 68.4224 96.4127C69.1 96.2329 69.7451 96.002 70.4451 95.9153C69.8818 97.3036 69.0545 98.6215 68.3638 99.9504C67.3843 101.835 66.4877 103.762 65.5946 105.688C65.1086 106.736 64.5377 107.777 64.2288 108.897C63.9549 109.891 64.1116 111 64.082 112.018C64.015 114.335 63.9979 116.646 63.9984 118.965C63.999 122.745 63.9979 126.525 63.999 130.306C63.9995 131.525 64.0003 132.745 64.0001 133.964C64.0001 134.56 63.9213 135.225 64.0185 135.812C65.8481 135.889 67.6912 135.831 69.5223 135.831C72.8635 135.83 76.2049 135.83 79.5462 135.83C83.3507 135.83 87.1553 135.832 90.9599 135.831C92.1501 135.83 93.3402 135.831 94.5303 135.828C95.1864 135.826 95.8969 135.747 96.5446 135.865C97.0032 135.948 97.3799 136.183 97.7245 136.489C98.14 136.859 98.4866 137.34 98.6685 137.869C99.0772 139.057 98.5399 140.491 97.5241 141.184C96.8102 141.671 96.0146 141.659 95.1846 141.661C94.362 141.662 93.539 141.663 92.7161 141.666C88.9115 141.683 85.107 141.665 81.3024 141.663C77.4532 141.66 73.6034 141.634 69.7545 141.661C68.9305 141.667 68.1107 141.737 67.2878 141.747C65.3994 141.772 63.5093 141.754 61.6207 141.754C53.7536 141.755 45.8921 141.662 38.0245 141.725C34.5488 141.753 31.073 141.752 27.597 141.744C26.5429 141.742 25.4891 141.727 24.4353 141.718C23.8734 141.714 23.3139 141.774 22.752 141.741C22.2386 141.71 21.6725 141.625 21.2052 141.4C20.0087 140.824 19.3901 139.594 19.5409 138.293Z" fill="white"/>
</g>
<mask id="mask3_30952_3111" style="mask-type:luminance" maskUnits="userSpaceOnUse" x="0" y="0" width="118" height="142">
<path d="M0 0.446777H118V141.762H0V0.446777Z" fill="white"/>
</mask>
<g mask="url(#mask3_30952_3111)">
<path fill-rule="evenodd" clip-rule="evenodd" d="M25.0545 61.1846C25.0486 61.0178 25.008 61.0584 25.0615 61.0123C26.1775 61.6074 27.2192 62.2786 28.3819 62.7953C28.8068 62.9841 29.2768 63.1994 29.732 63.2951C29.5951 62.8361 29.3668 62.4085 29.2292 61.9483C28.9212 60.9181 28.8982 59.8057 29.2373 58.7778C29.5626 57.7925 30.3594 56.7979 31.3315 56.3978C32.4479 55.9383 33.7906 56.193 34.7522 56.8732C36.2869 57.9588 37.0515 59.813 37.0324 61.6451C37.0995 61.7255 37.2446 61.7244 37.3449 61.7472C37.5581 61.7957 37.7686 61.8519 37.9821 61.8975C38.627 62.035 39.2713 62.1983 39.9135 62.3486C40.1624 62.4068 40.5323 62.5354 40.7812 62.5121C40.5202 61.7307 40.3863 60.9519 40.4796 60.1275C40.5874 59.176 40.9555 58.2424 41.5815 57.5133C42.8875 55.9921 45.1978 55.4519 47.0405 56.2323C48.4797 56.8418 49.4214 58.1509 49.8915 59.6011C50.1562 60.4179 50.0864 61.1987 49.9126 62.0233C49.9328 62.0756 50.081 62.0677 50.1429 62.0782C50.4131 62.1247 50.6855 62.157 50.9559 62.2037C52.0742 62.3971 53.2398 62.7385 54.377 62.7727C54.3052 62.4942 54.1784 62.2349 54.1118 61.9522C53.9281 61.171 53.9106 60.3878 54.0763 59.6029C54.2225 58.911 54.5133 58.2378 54.913 57.6546C55.2381 57.1803 55.6367 56.7593 56.1203 56.4441C56.5191 56.184 56.9129 55.9452 57.3694 55.7928C59.7532 54.9978 62.3637 55.8784 63.7786 57.9393C64.1074 58.418 64.377 58.9486 64.519 59.5138C64.8068 60.6594 64.5067 61.6963 64.1267 62.7727C65.2479 62.6193 66.3779 62.4042 67.4912 62.1967C67.7627 62.1462 68.0362 62.1054 68.308 62.056C68.3938 62.0404 68.5916 62.0479 68.6427 61.9763C68.4057 60.5481 68.5216 59.0792 69.4046 57.8675C69.7696 57.3669 70.2416 56.8987 70.771 56.5729C72.2059 55.6897 74.1298 55.6267 75.5995 56.4722C76.7539 57.1364 77.6012 58.3166 77.9352 59.5954C78.194 60.5858 77.9903 61.5389 77.7634 62.5089C78.5602 62.337 79.3378 62.0826 80.1311 61.8967C80.5934 61.7882 81.1285 61.7599 81.5719 61.5981C81.4036 59.5566 82.4545 57.3519 84.3681 56.4529C84.716 56.2893 85.092 56.1846 85.4735 56.1412C85.7971 56.1045 86.13 56.1181 86.4498 56.1778C88.3336 56.5306 89.246 58.2743 89.3501 60.0452C89.4155 61.1585 89.0889 62.2246 88.6923 63.2492C90.2274 62.5047 91.8974 61.9667 93.327 61.0018C93.2517 61.727 93.2528 62.4562 93.1466 63.179C92.9767 64.3353 92.7049 65.4543 92.4115 66.5843C92.1143 67.7283 91.8146 68.8858 91.3827 69.9879C90.0953 73.2733 88.3586 76.4231 86.1562 79.188C80.3524 86.4734 71.4815 91.1042 62.2654 92.124C58.9239 92.4938 55.5419 92.2875 52.265 91.5515C48.8807 90.7914 45.5817 89.6901 42.5508 87.9752C36.051 84.2975 30.7439 78.5503 27.6971 71.7267C26.8138 69.7486 26.1544 67.6838 25.6724 65.5733C25.3447 64.1375 25.0841 62.6603 25.0545 61.1846Z" fill="white"/>
</g>
<mask id="mask4_30952_3111" style="mask-type:luminance" maskUnits="userSpaceOnUse" x="0" y="0" width="118" height="142">
<path d="M0 0.446777H118V141.762H0V0.446777Z" fill="white"/>
</mask>
<g mask="url(#mask4_30952_3111)">
<path fill-rule="evenodd" clip-rule="evenodd" d="M25.7001 51.0098C25.8456 49.7277 26.1709 48.4272 26.7888 47.2867C27.0471 46.8097 27.3498 46.3114 27.7546 45.9438C27.9545 45.7622 28.1701 45.6101 28.4258 45.5177C28.6157 45.4492 28.8137 45.4082 29.0149 45.3937C30.661 45.2769 30.833 47.446 30.7224 48.6129C30.5705 50.2159 29.5995 51.9407 28.3066 52.899C27.6391 53.3938 26.4389 53.7353 25.9215 52.8499C25.6054 52.309 25.632 51.6084 25.7001 51.0098Z" fill="white"/>
</g>
<mask id="mask5_30952_3111" style="mask-type:luminance" maskUnits="userSpaceOnUse" x="0" y="0" width="118" height="142">
<path d="M0 0.446777H118V141.762H0V0.446777Z" fill="white"/>
</mask>
<g mask="url(#mask5_30952_3111)">
<path fill-rule="evenodd" clip-rule="evenodd" d="M31.1051 39.5938C31.4669 37.574 33.0962 35.7074 34.9145 34.8267C35.8896 34.3544 37.5218 34.0923 37.8154 35.4837C37.8563 35.6769 37.8626 35.8619 37.8383 36.0577C37.7298 36.9252 37.2981 37.7612 36.7882 38.4568C36.0261 39.4959 35.0763 40.4231 33.9145 41C32.9992 41.4543 31.2801 41.7171 31.0729 40.3169C31.0369 40.0734 31.0621 39.8342 31.1051 39.5938Z" fill="white"/>
</g>
<mask id="mask6_30952_3111" style="mask-type:luminance" maskUnits="userSpaceOnUse" x="0" y="0" width="118" height="142">
<path d="M0 0.446777H118V141.762H0V0.446777Z" fill="white"/>
</mask>
<g mask="url(#mask6_30952_3111)">
<path fill-rule="evenodd" clip-rule="evenodd" d="M35.1345 48.3754C35.4036 46.5931 36.5439 44.8852 38.3267 44.3283C39.51 43.9587 40.8781 44.1457 41.8035 45.0114C42.6216 45.777 42.9783 47.1045 42.8356 48.1939C42.576 50.1753 40.8391 52.0257 38.8579 52.3312C38.529 52.3819 38.1818 52.3701 37.8539 52.3181C35.9497 52.0163 34.8553 50.2256 35.1345 48.3754Z" fill="white"/>
</g>
<mask id="mask7_30952_3111" style="mask-type:luminance" maskUnits="userSpaceOnUse" x="0" y="0" width="118" height="142">
<path d="M0 0.446777H118V141.762H0V0.446777Z" fill="white"/>
</mask>
<g mask="url(#mask7_30952_3111)">
<path fill-rule="evenodd" clip-rule="evenodd" d="M42.0791 37.3975C42.4856 35.2326 44.3915 33.6594 46.5136 33.3249C47.9167 33.1039 49.5948 33.6886 49.9304 35.2122C50.0046 35.5491 49.9881 35.9203 49.935 36.2592C49.609 38.3383 47.5042 40.0835 45.4482 40.2804C43.9784 40.4211 42.2209 39.9764 42.0365 38.2689C42.0049 37.9774 42.0251 37.6849 42.0791 37.3975Z" fill="white"/>
</g>
<mask id="mask8_30952_3111" style="mask-type:luminance" maskUnits="userSpaceOnUse" x="0" y="0" width="118" height="142">
<path d="M0 0.446777H118V141.762H0V0.446777Z" fill="white"/>
</mask>
<g mask="url(#mask8_30952_3111)">
<path fill-rule="evenodd" clip-rule="evenodd" d="M47.5631 48.0103C47.8135 45.652 49.6909 43.9665 52.036 43.8282C54.4665 43.6849 56.7403 45.7908 56.5 48.2814C56.4423 48.88 56.1907 49.4366 55.8799 49.9443C54.3158 52.5013 50.3351 53.3799 48.3566 50.8039C48.0787 50.4419 47.8464 50.0227 47.7029 49.589C47.5343 49.0804 47.5069 48.5395 47.5631 48.0103Z" fill="white"/>
</g>
<mask id="mask9_30952_3111" style="mask-type:luminance" maskUnits="userSpaceOnUse" x="0" y="0" width="118" height="142">
<path d="M0 0.446777H118V141.762H0V0.446777Z" fill="white"/>
</mask>
<g mask="url(#mask9_30952_3111)">
<path fill-rule="evenodd" clip-rule="evenodd" d="M54.959 36.3006C55.3658 33.5464 58.7079 32.5408 61.0291 33.428C62.5105 33.9944 63.7599 35.6615 63.509 37.2923C63.295 38.6818 62.248 39.5405 60.9883 39.9836C58.7371 40.7754 55.6028 40.103 54.9955 37.4631C54.907 37.079 54.9015 36.6894 54.959 36.3006Z" fill="white"/>
</g>
<mask id="mask10_30952_3111" style="mask-type:luminance" maskUnits="userSpaceOnUse" x="0" y="0" width="118" height="142">
<path d="M0 0.446777H118V141.762H0V0.446777Z" fill="white"/>
</mask>
<g mask="url(#mask10_30952_3111)">
<path fill-rule="evenodd" clip-rule="evenodd" d="M61.9122 47.4992C62.0902 44.8266 64.8944 43.377 67.3279 43.9607C69.3559 44.4473 71.0327 46.5293 70.9168 48.6523C70.7928 50.925 68.522 52.5155 66.3538 52.321C63.9055 52.1013 61.7421 50.0492 61.9122 47.4992Z" fill="white"/>
</g>
<mask id="mask11_30952_3111" style="mask-type:luminance" maskUnits="userSpaceOnUse" x="0" y="0" width="118" height="142">
<path d="M0 0.446777H118V141.762H0V0.446777Z" fill="white"/>
</mask>
<g mask="url(#mask11_30952_3111)">
<path fill-rule="evenodd" clip-rule="evenodd" d="M68.3449 35.3515C68.376 35.0799 68.4382 34.8032 68.556 34.556C69.1232 33.3689 70.537 33.1154 71.7166 33.2882C73.3727 33.5309 74.7896 34.6067 75.738 35.9459C76.1953 36.5912 76.5851 37.4391 76.474 38.2504C76.2433 39.9348 74.362 40.3532 72.953 40.2364C71.2451 40.0948 69.8484 39.0779 68.9685 37.6384C68.5481 36.951 68.2516 36.1676 68.3449 35.3515Z" fill="white"/>
</g>
<mask id="mask12_30952_3111" style="mask-type:luminance" maskUnits="userSpaceOnUse" x="0" y="0" width="118" height="142">
<path d="M0 0.446777H118V141.762H0V0.446777Z" fill="white"/>
</mask>
<g mask="url(#mask12_30952_3111)">
<path fill-rule="evenodd" clip-rule="evenodd" d="M75.5941 47.1322C75.6248 46.7307 75.7038 46.3168 75.8661 45.9467C76.6424 44.178 78.6293 43.7267 80.3258 44.4475C82.1723 45.2322 83.5424 47.4244 83.3613 49.4519C83.1561 51.75 80.638 52.7854 78.6449 52.0358C76.7186 51.3115 75.44 49.1542 75.5941 47.1322Z" fill="white"/>
</g>
<mask id="mask13_30952_3111" style="mask-type:luminance" maskUnits="userSpaceOnUse" x="0" y="0" width="118" height="142">
<path d="M0 0.446777H118V141.762H0V0.446777Z" fill="white"/>
</mask>
<g mask="url(#mask13_30952_3111)">
<path fill-rule="evenodd" clip-rule="evenodd" d="M80.4879 35.497C80.5055 35.3412 80.5468 35.1829 80.6177 35.0427C81.1578 33.9766 82.51 34.391 83.3406 34.8464C84.7669 35.6283 86.0141 36.8527 86.7323 38.3185C86.9998 38.8648 87.2997 39.5073 87.2224 40.1335C87.0426 41.591 85.1791 41.4819 84.2047 40.9525C82.8684 40.2261 81.8131 38.9456 81.0694 37.6429C80.7114 37.0157 80.4045 36.2337 80.4879 35.497Z" fill="white"/>
</g>
<mask id="mask14_30952_3111" style="mask-type:luminance" maskUnits="userSpaceOnUse" x="0" y="0" width="118" height="142">
<path d="M0 0.446777H118V141.762H0V0.446777Z" fill="white"/>
</mask>
<g mask="url(#mask14_30952_3111)">
<path fill-rule="evenodd" clip-rule="evenodd" d="M87.6643 47.2033C87.7293 46.7507 87.8123 46.2873 88.1031 45.9195C88.8689 44.951 90.1451 45.4934 90.8122 46.2533C91.6423 47.1987 92.1393 48.4624 92.4389 49.6687C92.6331 50.451 92.7405 51.279 92.5908 52.0797C92.5517 52.2876 92.4758 52.4849 92.3759 52.6706C92.2839 52.8423 92.1849 53.001 92.0368 53.1305C91.2314 53.8359 90.1247 53.0345 89.5287 52.4463C88.1815 51.1161 87.3937 49.0886 87.6643 47.2033Z" fill="white"/>
</g>
</g>
<g clip-path="url(#clip0_30952_3111)">
<path d="M196.176 60.9236C196.176 64.1766 195.429 67.163 193.936 69.8827C192.443 72.5492 190.149 74.7089 187.056 76.3621C183.963 78.0153 180.124 78.8419 175.537 78.8419H167.058V99H153.38V42.8453H175.537C180.017 42.8453 183.803 43.6185 186.896 45.1651C189.989 46.7116 192.309 48.8447 193.856 51.5645C195.402 54.2842 196.176 57.4039 196.176 60.9236ZM174.498 67.9629C177.111 67.9629 179.057 67.3496 180.337 66.1231C181.617 64.8965 182.257 63.1634 182.257 60.9236C182.257 58.6838 181.617 56.9506 180.337 55.7241C179.057 54.4975 177.111 53.8842 174.498 53.8842H167.058V67.9629H174.498ZM240.822 99L229.143 77.802H225.864V99H212.185V42.8453H235.143C239.569 42.8453 243.329 43.6185 246.422 45.1651C249.568 46.7116 251.914 48.8447 253.461 51.5645C255.007 54.2309 255.781 57.2173 255.781 60.5236C255.781 64.2566 254.714 67.5896 252.581 70.5227C250.501 73.4557 247.408 75.5355 243.302 76.7621L256.261 99H240.822ZM225.864 68.1229H234.343C236.849 68.1229 238.716 67.5096 239.942 66.2831C241.222 65.0565 241.862 63.3234 241.862 61.0836C241.862 58.9504 241.222 57.2706 239.942 56.044C238.716 54.8175 236.849 54.2042 234.343 54.2042H225.864V68.1229ZM299.813 99.5599C294.533 99.5599 289.681 98.3334 285.254 95.8803C280.881 93.4272 277.388 90.0142 274.775 85.6413C272.216 81.215 270.936 76.2555 270.936 70.7627C270.936 65.2698 272.216 60.337 274.775 55.964C277.388 51.5911 280.881 48.1781 285.254 45.725C289.681 43.2719 294.533 42.0453 299.813 42.0453C305.092 42.0453 309.919 43.2719 314.292 45.725C318.718 48.1781 322.184 51.5911 324.691 55.964C327.25 60.337 328.53 65.2698 328.53 70.7627C328.53 76.2555 327.25 81.215 324.691 85.6413C322.131 90.0142 318.665 93.4272 314.292 95.8803C309.919 98.3334 305.092 99.5599 299.813 99.5599ZM299.813 87.0811C304.293 87.0811 307.866 85.5879 310.532 82.6015C313.252 79.6152 314.612 75.6689 314.612 70.7627C314.612 65.8031 313.252 61.8568 310.532 58.9238C307.866 55.9374 304.293 54.4442 299.813 54.4442C295.28 54.4442 291.654 55.9107 288.934 58.8438C286.268 61.7768 284.934 65.7498 284.934 70.7627C284.934 75.7222 286.268 79.6951 288.934 82.6815C291.654 85.6146 295.28 87.0811 299.813 87.0811ZM342.708 70.8426C342.708 65.2965 343.908 60.3636 346.308 56.044C348.708 51.6711 352.041 48.2848 356.307 45.885C360.627 43.4319 365.506 42.2053 370.946 42.2053C377.612 42.2053 383.318 43.9652 388.064 47.4848C392.81 51.0045 395.983 55.8041 397.583 61.8835H382.545C381.425 59.537 379.825 57.7505 377.745 56.524C375.719 55.2974 373.399 54.6842 370.786 54.6842C366.573 54.6842 363.16 56.1507 360.547 59.0837C357.934 62.0168 356.627 65.9364 356.627 70.8426C356.627 75.7488 357.934 79.6685 360.547 82.6015C363.16 85.5346 366.573 87.0011 370.786 87.0011C373.399 87.0011 375.719 86.3879 377.745 85.1613C379.825 83.9347 381.425 82.1482 382.545 79.8018H397.583C395.983 85.8812 392.81 90.6808 388.064 94.2005C383.318 97.6668 377.612 99.4 370.946 99.4C365.506 99.4 360.627 98.2001 356.307 95.8003C352.041 93.3472 348.708 89.9608 346.308 85.6413C343.908 81.3217 342.708 76.3888 342.708 70.8426ZM449.805 89.0809H428.847L425.487 99H411.168L431.486 42.8453H447.325L467.643 99H453.164L449.805 89.0809ZM446.285 78.5219L439.326 57.9639L432.446 78.5219H446.285ZM503.753 42.8453C509.672 42.8453 514.845 44.0185 519.272 46.3649C523.698 48.7114 527.111 52.0177 529.511 56.284C531.964 60.4969 533.19 65.3765 533.19 70.9226C533.19 76.4155 531.964 81.295 529.511 85.5613C527.111 89.8275 523.671 93.1339 519.192 95.4803C514.765 97.8268 509.619 99 503.753 99H482.715V42.8453H503.753ZM502.873 87.1611C508.046 87.1611 512.072 85.7479 514.952 82.9215C517.832 80.0951 519.272 76.0955 519.272 70.9226C519.272 65.7498 517.832 61.7235 514.952 58.8438C512.072 55.964 508.046 54.5242 502.873 54.5242H496.394V87.1611H502.873ZM570.761 42.8453C576.68 42.8453 581.853 44.0185 586.279 46.3649C590.705 48.7114 594.118 52.0177 596.518 56.284C598.971 60.4969 600.198 65.3765 600.198 70.9226C600.198 76.4155 598.971 81.295 596.518 85.5613C594.118 89.8275 590.679 93.1339 586.199 95.4803C581.773 97.8268 576.627 99 570.761 99H549.723V42.8453H570.761ZM569.881 87.1611C575.053 87.1611 579.08 85.7479 581.96 82.9215C584.839 80.0951 586.279 76.0955 586.279 70.9226C586.279 65.7498 584.839 61.7235 581.96 58.8438C579.08 55.964 575.053 54.5242 569.881 54.5242H563.401V87.1611H569.881ZM630.409 42.8453V99H616.73V42.8453H630.409ZM662.888 53.8042V65.1632H681.207V75.7222H662.888V88.041H683.606V99H649.21V42.8453H683.606V53.8042H662.888Z" fill="white"/>
</g>
<defs>
<clipPath id="clip0_30952_3111">
<path d="M138 71.1044C138 31.8345 169.835 0 209.104 0H626.843C666.113 0 697.947 31.8345 697.947 71.1044C697.947 110.374 666.113 142.209 626.843 142.209H209.104C169.835 142.209 138 110.374 138 71.1044Z" fill="white"/>
</clipPath>
</defs>
</svg>
