<svg width="32" height="32" viewBox="0 0 32 32" fill="none" xmlns="http://www.w3.org/2000/svg">
<mask id="mask0_31053_2581" style="mask-type:luminance" maskUnits="userSpaceOnUse" x="2" y="0" width="28" height="32">
<path d="M2.46973 0H29.1901V32H2.46973V0Z" fill="white"/>
</mask>
<g mask="url(#mask0_31053_2581)">
<mask id="mask1_31053_2581" style="mask-type:luminance" maskUnits="userSpaceOnUse" x="2" y="0" width="28" height="32">
<path d="M2.46973 0H29.1901V32H2.46973V0Z" fill="white"/>
</mask>
<g mask="url(#mask1_31053_2581)">
<path fill-rule="evenodd" clip-rule="evenodd" d="M2.48927 12.6928C2.54255 12.0163 2.61482 11.3469 2.75419 10.6814C2.87458 10.1067 3.0469 9.54214 3.24373 8.98988C3.5085 8.2472 3.82378 7.52613 4.21769 6.84136C5.00853 5.46653 6.04949 4.22422 7.24896 3.18839C7.90913 2.61828 8.64317 2.13082 9.4028 1.70506C11.0432 0.785774 12.8831 0.191858 14.7606 0.0486593C15.511 -0.00855045 16.2549 -0.0265444 17.0053 0.057108C17.4103 0.10224 17.824 0.139816 18.224 0.219442C19.4268 0.458918 20.5924 0.869478 21.6889 1.41792C23.202 2.17471 24.5888 3.22541 25.7268 4.47727C26.8789 5.74448 27.8236 7.26484 28.3905 8.88465C28.6052 9.49835 28.7978 10.1171 28.9324 10.7541C29.1339 11.7071 29.2122 12.6958 29.1848 13.6691C29.1492 14.9336 28.9114 16.1844 28.5041 17.3815C28.1028 18.5615 27.557 19.6954 26.8339 20.715C26.127 21.7117 25.2774 22.629 24.3344 23.4047C23.9791 23.697 23.6192 23.9902 23.2371 24.2472C22.212 24.9369 21.0836 25.4561 19.9161 25.8495C19.5463 25.9741 19.1637 26.0631 18.7862 26.1612C18.6609 26.1937 18.4667 26.2797 18.3599 26.1632C18.2863 26.0831 18.3081 25.9437 18.3086 25.844C18.3099 25.5934 18.3096 25.3434 18.3144 25.0927C18.317 24.9645 18.3207 24.8362 18.3183 24.7079C18.3167 24.6206 18.3049 24.5211 18.3272 24.4359C18.3469 24.3609 18.4049 24.2911 18.4453 24.226C18.5195 24.1062 18.5899 23.9835 18.6609 23.8618C18.8882 23.4721 19.0852 23.0661 19.3089 22.6746C19.4093 22.499 19.5097 22.3214 19.6176 22.1504C19.6998 22.0201 19.8133 21.8718 19.839 21.7159C19.8731 21.5092 19.8008 21.2804 19.739 21.085C19.829 21.0544 19.9138 21.0047 19.999 20.963C20.2331 20.8483 20.4603 20.7137 20.6803 20.5742C21.5491 20.0231 22.314 19.3211 22.9291 18.496C23.2035 18.128 23.4638 17.7503 23.6901 17.3504C24.2171 16.4192 24.5763 15.3391 24.7087 14.277C24.9329 12.4777 24.5911 10.6139 23.7275 9.01592C23.5546 8.69597 23.3493 8.39338 23.1399 8.09664C22.0894 6.60809 20.6017 5.43855 18.8981 4.78847C18.3322 4.57255 17.7465 4.39784 17.1466 4.30594C16.5092 4.20837 15.8661 4.20036 15.2246 4.24033C14.8436 4.26404 14.457 4.30788 14.0841 4.39173C13.6885 4.4807 13.2814 4.59263 12.9042 4.74234C12.6228 4.85398 12.3517 4.98385 12.0756 5.10682C11.8684 5.19907 11.6624 5.3046 11.467 5.41996C9.10666 6.81317 7.38415 9.28095 7.01729 12.0104C6.77398 13.82 7.14209 15.7045 8.00412 17.3086C8.30791 17.8739 8.68596 18.3968 9.09259 18.8917C9.86922 19.837 10.8936 20.5833 11.9903 21.1175C11.9395 21.2889 11.8806 21.4757 11.9083 21.6564C11.9294 21.7936 12.0145 21.923 12.0834 22.0409C12.1907 22.2245 12.2915 22.4119 12.3941 22.5981C12.6085 22.9873 12.8162 23.3817 13.0402 23.7655C13.1221 23.9059 13.2072 24.0443 13.2891 24.1847C13.3326 24.2594 13.3921 24.3385 13.4175 24.4216C13.4401 24.4954 13.4306 24.5821 13.4316 24.6584C13.4335 24.8062 13.4322 24.9539 13.4322 25.1016C13.432 25.3546 13.4311 25.6077 13.4363 25.8607C13.4389 25.9856 13.4633 26.1179 13.3605 26.2093C13.2726 26.2872 13.1293 26.2429 13.0276 26.2198C12.7484 26.1565 12.4677 26.0864 12.1941 26.0021C11.0313 25.6439 9.89686 25.1834 8.86505 24.5297C7.74381 23.8194 6.69853 22.9439 5.81827 21.9498C5.53401 21.6288 5.27202 21.2866 5.01668 20.9424C4.73928 20.5684 4.48574 20.1808 4.24507 19.7821C4.10202 19.545 3.95669 19.3074 3.83466 19.0585C3.05565 17.4704 2.58798 15.7344 2.4836 13.9685C2.4585 13.5447 2.47182 13.1164 2.48927 12.6928Z" fill="#39934D"/>
</g>
<mask id="mask2_31053_2581" style="mask-type:luminance" maskUnits="userSpaceOnUse" x="2" y="0" width="28" height="32">
<path d="M2.46973 0H29.1901V32H2.46973V0Z" fill="white"/>
</mask>
<g mask="url(#mask2_31053_2581)">
<path fill-rule="evenodd" clip-rule="evenodd" d="M6.89471 31.2146C6.91568 31.1284 6.93293 31.0422 6.97622 30.9634C7.17092 30.6091 7.56259 30.6552 7.90739 30.6561C8.2001 30.6568 8.49275 30.6569 8.78541 30.6569C10.1164 30.6568 11.4474 30.6568 12.7784 30.6569C13.2147 30.6569 13.651 30.6569 14.0872 30.6567C14.3142 30.6567 14.5516 30.6371 14.7774 30.6614C14.7669 29.3098 14.7747 27.9576 14.7748 26.6058C14.7748 26.1861 14.7752 25.7664 14.7748 25.3467C14.7745 25.1278 14.8027 24.8859 14.7534 24.6712C14.6803 24.3527 14.5029 24.0465 14.3629 23.7537C14.14 23.2877 13.9043 22.8284 13.6637 22.3713C13.5289 22.1152 13.3762 21.8599 13.2628 21.5938C13.5831 21.7221 13.9277 21.7911 14.2655 21.8554C15.2188 22.0369 16.2234 22.0471 17.1821 21.9015C17.4465 21.8614 17.7055 21.7995 17.9636 21.731C18.1171 21.6903 18.2631 21.638 18.4216 21.6184C18.2941 21.9327 18.1068 22.2312 17.9504 22.5321C17.7286 22.9589 17.5255 23.3953 17.3233 23.8314C17.2132 24.0687 17.084 24.3045 17.014 24.5581C16.952 24.7832 16.9875 25.0342 16.9808 25.2647C16.9656 25.7893 16.9617 26.3126 16.9618 26.8378C16.962 27.6938 16.9617 28.5498 16.962 29.4059C16.9621 29.682 16.9623 29.9582 16.9622 30.2343C16.9622 30.3692 16.9444 30.5197 16.9664 30.6527C17.3807 30.6702 17.7981 30.657 18.2127 30.657C18.9693 30.6569 19.7259 30.6567 20.4825 30.6567C21.3441 30.6568 22.2056 30.6572 23.0671 30.657C23.3366 30.6569 23.6061 30.6571 23.8756 30.6563C24.0242 30.6559 24.1851 30.638 24.3317 30.6646C24.4356 30.6835 24.5209 30.7367 24.5989 30.8061C24.693 30.8897 24.7715 30.9987 24.8127 31.1185C24.9052 31.3875 24.7836 31.7122 24.5535 31.8691C24.3919 31.9794 24.2117 31.9768 24.0238 31.9771C23.8375 31.9773 23.6511 31.9776 23.4648 31.9784C22.6033 31.9822 21.7418 31.9782 20.8802 31.9775C20.0086 31.9769 19.1368 31.971 18.2653 31.9772C18.0787 31.9785 17.893 31.9943 17.7067 31.9968C17.2791 32.0024 16.8511 31.9982 16.4234 31.9982C14.642 31.9984 12.8618 31.9774 11.0802 31.9917C10.2931 31.998 9.50608 31.9977 8.71896 31.996C8.48028 31.9955 8.24165 31.9923 8.00302 31.9902C7.87577 31.9892 7.74908 32.0028 7.62183 31.9953C7.50558 31.9883 7.37739 31.969 7.27157 31.9181C7.00063 31.7876 6.86056 31.5092 6.89471 31.2146Z" fill="white"/>
</g>
<mask id="mask3_31053_2581" style="mask-type:luminance" maskUnits="userSpaceOnUse" x="2" y="0" width="28" height="32">
<path d="M2.46973 0H29.1901V32H2.46973V0Z" fill="white"/>
</mask>
<g mask="url(#mask3_31053_2581)">
<path fill-rule="evenodd" clip-rule="evenodd" d="M8.14327 13.7534C8.14193 13.7156 8.13273 13.7248 8.14486 13.7144C8.39756 13.8491 8.63346 14.0011 8.89674 14.1181C8.99297 14.1609 9.09939 14.2096 9.20247 14.2313C9.17146 14.1274 9.11976 14.0305 9.0886 13.9263C9.01886 13.693 9.01365 13.4411 9.09044 13.2084C9.1641 12.9852 9.34453 12.76 9.56467 12.6694C9.81746 12.5654 10.1215 12.6231 10.3393 12.7771C10.6868 13.0229 10.8599 13.4428 10.8556 13.8577C10.8708 13.8759 10.9037 13.8756 10.9264 13.8808C10.9746 13.8918 11.0223 13.9045 11.0707 13.9148C11.2167 13.9459 11.3626 13.9829 11.508 14.017C11.5644 14.0301 11.6481 14.0593 11.7045 14.054C11.6454 13.877 11.6151 13.7007 11.6362 13.514C11.6606 13.2985 11.744 13.0871 11.8857 12.922C12.1815 12.5776 12.7046 12.4553 13.1219 12.6319C13.4478 12.77 13.661 13.0664 13.7675 13.3948C13.8274 13.5798 13.8116 13.7566 13.7722 13.9433C13.7768 13.9551 13.8104 13.9533 13.8244 13.9557C13.8856 13.9663 13.9473 13.9736 14.0085 13.9842C14.2617 14.0279 14.5257 14.1052 14.7832 14.113C14.7669 14.0499 14.7382 13.9912 14.7231 13.9272C14.6815 13.7503 14.6776 13.573 14.7151 13.3952C14.7482 13.2385 14.814 13.0861 14.9046 12.954C14.9782 12.8466 15.0684 12.7513 15.1779 12.6799C15.2682 12.621 15.3574 12.5669 15.4608 12.5324C16.0006 12.3524 16.5917 12.5518 16.9121 13.0185C16.9866 13.1269 17.0476 13.247 17.0798 13.375C17.1449 13.6344 17.077 13.8692 16.9909 14.113C17.2448 14.0782 17.5007 14.0295 17.7528 13.9826C17.8143 13.9711 17.8762 13.9619 17.9378 13.9507C17.9572 13.9472 18.002 13.9489 18.0136 13.9327C17.9599 13.6092 17.9861 13.2766 18.1861 13.0022C18.2687 12.8889 18.3756 12.7829 18.4955 12.7091C18.8204 12.5091 19.2561 12.4948 19.5889 12.6863C19.8503 12.8367 20.0421 13.1039 20.1178 13.3935C20.1764 13.6178 20.1303 13.8336 20.0789 14.0532C20.2593 14.0143 20.4354 13.9567 20.615 13.9146C20.7197 13.8901 20.8409 13.8837 20.9413 13.847C20.9032 13.3847 21.1412 12.8855 21.5745 12.6819C21.6533 12.6449 21.7384 12.6212 21.8248 12.6113C21.8981 12.603 21.9735 12.6061 22.0459 12.6196C22.4724 12.6995 22.6791 13.0943 22.7026 13.4954C22.7174 13.7475 22.6435 13.9889 22.5537 14.2209C22.9013 14.0523 23.2794 13.9305 23.6032 13.712C23.5861 13.8762 23.5864 14.0413 23.5623 14.205C23.5238 14.4668 23.4623 14.7202 23.3959 14.9761C23.3286 15.2352 23.2607 15.4973 23.1629 15.7468C22.8714 16.4908 22.4781 17.2041 21.9794 17.8301C20.6651 19.4799 18.6564 20.5285 16.5695 20.7594C15.8128 20.8432 15.047 20.7964 14.3049 20.6298C13.5386 20.4577 12.7915 20.2083 12.1052 19.8199C10.6334 18.9871 9.43161 17.6857 8.74166 16.1406C8.54165 15.6926 8.39234 15.2251 8.28319 14.7472C8.20898 14.4221 8.14998 14.0875 8.14327 13.7534Z" fill="white"/>
</g>
<mask id="mask4_31053_2581" style="mask-type:luminance" maskUnits="userSpaceOnUse" x="2" y="0" width="28" height="32">
<path d="M2.46973 0H29.1901V32H2.46973V0Z" fill="white"/>
</mask>
<g mask="url(#mask4_31053_2581)">
<path fill-rule="evenodd" clip-rule="evenodd" d="M8.2891 11.45C8.32206 11.1597 8.39572 10.8652 8.53564 10.6069C8.59414 10.4989 8.66268 10.3861 8.75434 10.3028C8.79962 10.2617 8.84843 10.2273 8.90633 10.2064C8.94933 10.1908 8.99416 10.1816 9.03974 10.1783C9.41247 10.1518 9.45144 10.643 9.42639 10.9072C9.392 11.2702 9.1721 11.6608 8.87934 11.8778C8.72819 11.9898 8.45641 12.0672 8.33926 11.8667C8.26768 11.7442 8.2737 11.5856 8.2891 11.45Z" fill="white"/>
</g>
<mask id="mask5_31053_2581" style="mask-type:luminance" maskUnits="userSpaceOnUse" x="2" y="0" width="28" height="32">
<path d="M2.46973 0H29.1901V32H2.46973V0Z" fill="white"/>
</mask>
<g mask="url(#mask5_31053_2581)">
<path fill-rule="evenodd" clip-rule="evenodd" d="M9.51364 8.86539C9.59555 8.40801 9.96451 7.98532 10.3763 7.78591C10.597 7.67894 10.9666 7.6196 11.0332 7.93467C11.0424 7.97841 11.0438 8.02031 11.0383 8.06465C11.0138 8.26108 10.916 8.4504 10.8005 8.60792C10.628 8.84322 10.4129 9.05317 10.1498 9.18379C9.94254 9.28668 9.55326 9.34618 9.50633 9.02911C9.49818 8.97399 9.5039 8.91981 9.51364 8.86539Z" fill="white"/>
</g>
<mask id="mask6_31053_2581" style="mask-type:luminance" maskUnits="userSpaceOnUse" x="2" y="0" width="28" height="32">
<path d="M2.46973 0H29.1901V32H2.46973V0Z" fill="white"/>
</mask>
<g mask="url(#mask6_31053_2581)">
<path fill-rule="evenodd" clip-rule="evenodd" d="M10.4258 10.8532C10.4867 10.4496 10.7449 10.0628 11.1486 9.93672C11.4166 9.85302 11.7264 9.89537 11.936 10.0914C12.1212 10.2648 12.202 10.5654 12.1697 10.8121C12.1109 11.2607 11.7176 11.6798 11.2689 11.7489C11.1945 11.7604 11.1158 11.7577 11.0416 11.746C10.6104 11.6776 10.3626 11.2721 10.4258 10.8532Z" fill="white"/>
</g>
<mask id="mask7_31053_2581" style="mask-type:luminance" maskUnits="userSpaceOnUse" x="2" y="0" width="28" height="32">
<path d="M2.46973 0H29.1901V32H2.46973V0Z" fill="white"/>
</mask>
<g mask="url(#mask7_31053_2581)">
<path fill-rule="evenodd" clip-rule="evenodd" d="M11.9984 8.3675C12.0904 7.87726 12.522 7.52103 13.0026 7.44528C13.3203 7.39523 13.7003 7.52764 13.7763 7.87264C13.7931 7.94894 13.7893 8.03299 13.7773 8.10973C13.7035 8.58053 13.2269 8.97573 12.7613 9.02031C12.4285 9.05217 12.0305 8.95147 11.9888 8.56482C11.9816 8.49881 11.9862 8.43256 11.9984 8.3675Z" fill="white"/>
</g>
<mask id="mask8_31053_2581" style="mask-type:luminance" maskUnits="userSpaceOnUse" x="2" y="0" width="28" height="32">
<path d="M2.46973 0H29.1901V32H2.46973V0Z" fill="white"/>
</mask>
<g mask="url(#mask8_31053_2581)">
<path fill-rule="evenodd" clip-rule="evenodd" d="M13.2404 10.7708C13.2971 10.2368 13.7222 9.85514 14.2532 9.82383C14.8036 9.79137 15.3185 10.2682 15.2641 10.8322C15.251 10.9678 15.194 11.0938 15.1237 11.2088C14.7695 11.7878 13.8681 11.9868 13.42 11.4034C13.3571 11.3215 13.3045 11.2265 13.272 11.1283C13.2339 11.0132 13.2276 10.8907 13.2404 10.7708Z" fill="white"/>
</g>
<mask id="mask9_31053_2581" style="mask-type:luminance" maskUnits="userSpaceOnUse" x="2" y="0" width="28" height="32">
<path d="M2.46973 0H29.1901V32H2.46973V0Z" fill="white"/>
</mask>
<g mask="url(#mask9_31053_2581)">
<path fill-rule="evenodd" clip-rule="evenodd" d="M14.9153 8.119C15.0074 7.49531 15.7642 7.26761 16.2898 7.46852C16.6252 7.59675 16.9082 7.97426 16.8513 8.34356C16.8029 8.65819 16.5658 8.85263 16.2805 8.95299C15.7708 9.13227 15.061 8.98003 14.9235 8.38223C14.9035 8.29525 14.9022 8.20702 14.9153 8.119Z" fill="white"/>
</g>
<mask id="mask10_31053_2581" style="mask-type:luminance" maskUnits="userSpaceOnUse" x="2" y="0" width="28" height="32">
<path d="M2.46973 0H29.1901V32H2.46973V0Z" fill="white"/>
</mask>
<g mask="url(#mask10_31053_2581)">
<path fill-rule="evenodd" clip-rule="evenodd" d="M16.4894 10.655C16.5297 10.0498 17.1647 9.72156 17.7158 9.85373C18.175 9.96392 18.5547 10.4354 18.5285 10.9161C18.5004 11.4307 17.9862 11.7909 17.4952 11.7469C16.9408 11.6971 16.4509 11.2324 16.4894 10.655Z" fill="white"/>
</g>
<mask id="mask11_31053_2581" style="mask-type:luminance" maskUnits="userSpaceOnUse" x="2" y="0" width="28" height="32">
<path d="M2.46973 0H29.1901V32H2.46973V0Z" fill="white"/>
</mask>
<g mask="url(#mask11_31053_2581)">
<path fill-rule="evenodd" clip-rule="evenodd" d="M17.9458 7.90408C17.9529 7.84259 17.9669 7.77992 17.9936 7.72395C18.122 7.45515 18.4422 7.39774 18.7093 7.43685C19.0843 7.49183 19.4052 7.73543 19.6199 8.03868C19.7235 8.18481 19.8117 8.37681 19.7866 8.56052C19.7344 8.94195 19.3083 9.03669 18.9893 9.01025C18.6025 8.97819 18.2863 8.74791 18.087 8.42195C17.9918 8.26627 17.9247 8.08888 17.9458 7.90408Z" fill="white"/>
</g>
<mask id="mask12_31053_2581" style="mask-type:luminance" maskUnits="userSpaceOnUse" x="2" y="0" width="28" height="32">
<path d="M2.46973 0H29.1901V32H2.46973V0Z" fill="white"/>
</mask>
<g mask="url(#mask12_31053_2581)">
<path fill-rule="evenodd" clip-rule="evenodd" d="M19.5883 10.5719C19.5953 10.481 19.6131 10.3873 19.6499 10.3035C19.8257 9.90297 20.2756 9.80078 20.6598 9.96401C21.0779 10.1417 21.3881 10.6381 21.3471 11.0972C21.3007 11.6176 20.7304 11.8521 20.2791 11.6823C19.8429 11.5183 19.5534 11.0298 19.5883 10.5719Z" fill="white"/>
</g>
<mask id="mask13_31053_2581" style="mask-type:luminance" maskUnits="userSpaceOnUse" x="2" y="0" width="28" height="32">
<path d="M2.46973 0H29.1901V32H2.46973V0Z" fill="white"/>
</mask>
<g mask="url(#mask13_31053_2581)">
<path fill-rule="evenodd" clip-rule="evenodd" d="M20.696 7.9366C20.7 7.90131 20.7093 7.86547 20.7254 7.83371C20.8477 7.5923 21.1539 7.68614 21.342 7.78928C21.6649 7.96633 21.9474 8.24358 22.11 8.5755C22.1706 8.69922 22.2385 8.8447 22.221 8.98651C22.1803 9.31655 21.7583 9.29184 21.5376 9.17195C21.235 9.00748 20.9961 8.71751 20.8277 8.42251C20.7466 8.28051 20.6771 8.10341 20.696 7.9366Z" fill="white"/>
</g>
<mask id="mask14_31053_2581" style="mask-type:luminance" maskUnits="userSpaceOnUse" x="2" y="0" width="28" height="32">
<path d="M2.46973 0H29.1901V32H2.46973V0Z" fill="white"/>
</mask>
<g mask="url(#mask14_31053_2581)">
<path fill-rule="evenodd" clip-rule="evenodd" d="M22.3206 10.5878C22.3353 10.4853 22.3541 10.3804 22.42 10.2971C22.5934 10.0778 22.8824 10.2006 23.0334 10.3727C23.2214 10.5867 23.3339 10.8729 23.4018 11.1461C23.4458 11.3232 23.4701 11.5107 23.4362 11.692C23.4273 11.7391 23.4101 11.7838 23.3875 11.8258C23.3667 11.8647 23.3443 11.9006 23.3107 11.93C23.1283 12.0897 22.8777 11.9082 22.7428 11.775C22.4377 11.4738 22.2593 11.0147 22.3206 10.5878Z" fill="white"/>
</g>
</g>
</svg>
